*
G04 Job   : C:\Work_Temp_Folder\Sensics_IR_LED\PCB_EVB\PCB\IR_EVB.pcb*
G04 User  : JP_TECH_THINK:Roman Pesikov*
G04 Layer : SoldermaskTop.gdo*
G04 Date  : Fri Feb 27 19:16:05 2015*
G04 Mentor Graphics Example Gerber Output Definition*
%ICAS*%
%MOIN*%
%FSLAX26Y26*%
%OFA0.0000B0.0000*%
G90*
G74*
%AMVB_RECTANGLE*
21,1,$1,$2,0,0,$3*
%
%AMVB_FINGER90*
$3=$1/2*
$4=$2/2*
$5=0-$4*
1,1,$2,0,$3-$4*
21,1,$2,$1-$4,0,$5/2,0*
%
%AMVB_FINGER270*
$3=$1/2*
$4=$2/2*
1,1,$2,0,$4-$3*
21,1,$2,$1-$4,0,$4/2,0*
%
%AMVB_Custom_POL_X49Y39*
4,1,4,-0.0248,-0.0197,0.0248,-0.0197,0.0248,0.0197,-0.0248,0.0197,-0.0248,-0.0197,$1*
%
%ADD10C,0.02000*%
%ADD11C,0.03200*%
%ADD14C,0.06700*%
%ADD37C,0.07900*%
%ADD13VB_RECTANGLE,0.06700X0.06700X0.00000*%
%ADD38VB_RECTANGLE,0.07800X0.07800X180.00000*%
%ADD20VB_RECTANGLE,0.01500X0.03100X90.00000*%
%ADD16VB_RECTANGLE,0.01600X0.06500X90.00000*%
%ADD30VB_RECTANGLE,0.01800X0.03000X90.00000*%
%ADD12VB_RECTANGLE,0.02200X0.02000X0.00000*%
%ADD22VB_RECTANGLE,0.02200X0.02000X270.00000*%
%ADD29VB_RECTANGLE,0.02600X0.04500X270.00000*%
%ADD25VB_RECTANGLE,0.04535X0.04929X0.00000*%
%ADD72VB_RECTANGLE,0.04535X0.04929X270.00000*%
%ADD28VB_RECTANGLE,0.04700X0.06300X180.00000*%
%ADD32VB_RECTANGLE,0.05100X0.07500X0.00000*%
%ADD23VB_RECTANGLE,0.05700X0.01700X180.00000*%
%ADD24VB_RECTANGLE,0.05700X0.01700X90.00000*%
%ADD31VB_RECTANGLE,0.05900X0.05100X0.00000*%
%ADD27VB_RECTANGLE,0.06200X0.02700X0.00000*%
%ADD21VB_RECTANGLE,0.06500X0.04200X90.00000*%
%ADD35VB_RECTANGLE,0.06504X0.05717X270.00000*%
%ADD17VB_RECTANGLE,0.07400X0.13700X180.00000*%
%ADD19VB_RECTANGLE,0.10000X0.06800X180.00000*%
%ADD15VB_RECTANGLE,0.10600X0.06300X0.00000*%
%ADD36VB_RECTANGLE,0.11000X0.24800X0.00000*%
%ADD71VB_RECTANGLE,0.11228X0.06898X180.00000*%
%ADD34VB_RECTANGLE,0.12400X0.08800X180.00000*%
%ADD33VB_RECTANGLE,0.20600X0.05250X180.00000*%
%ADD26VB_RECTANGLE,0.22200X0.08500X270.00000*%
%ADD70VB_FINGER90,0.03800X0.01800*%
%ADD18VB_FINGER270,0.03800X0.01800*%
%ADD73VB_Custom_POL_X49Y39,90.00000X0.00000X1.00000*%
G01*
G36*
X2418710Y1332520D02*
X2462080D01*
Y1362120*
X2418710*
Y1332520*
Y1367960D02*
X2462080D01*
Y1397560*
X2418710*
Y1367960*
X2467920Y1332520D02*
X2511290D01*
Y1362120*
X2467920*
Y1332520*
Y1367960D02*
X2511290D01*
Y1397560*
X2467920*
Y1367960*
G37*
G54D10*
X0Y0D02*
X2975000D01*
Y2350000*
X0*
Y0*
G54D11*
X1684595Y119180D03*
G54D12*
X2330000Y1340000D03*
Y1370000D03*
X2370000Y1340000D03*
Y1370000D03*
X2410000Y340000D03*
Y370000D03*
X2445000Y340000D03*
Y370000D03*
X2505000Y360000D03*
Y390000D03*
X2585000Y480000D03*
Y510000D03*
X2605000Y675000D03*
Y705000D03*
X2875000Y1375000D03*
Y1405000D03*
X2915000Y1375000D03*
Y1405000D03*
G54D13*
X680000Y130000D03*
X1010000D03*
X2820000Y275000D03*
G54D14*
X780000Y130000D03*
X880000D03*
X1110000D03*
X1210000D03*
X2820000Y75000D03*
Y175000D03*
G54D15*
X175000Y1091000D03*
Y1209000D03*
Y1341000D03*
Y1459000D03*
Y1691000D03*
Y1809000D03*
Y1991000D03*
Y2109000D03*
X365000Y941000D03*
Y1059000D03*
Y1191000D03*
Y1309000D03*
Y1541000D03*
Y1659000D03*
Y2091000D03*
Y2209000D03*
X575000Y951000D03*
Y1069000D03*
Y1301000D03*
Y1419000D03*
Y1551000D03*
Y1669000D03*
Y1951000D03*
Y2069000D03*
X765000Y1051000D03*
Y1169000D03*
Y1601000D03*
Y1719000D03*
Y1851000D03*
Y1969000D03*
Y2101000D03*
Y2219000D03*
X975000Y1101000D03*
Y1219000D03*
Y1351000D03*
Y1469000D03*
Y1751000D03*
Y1869000D03*
Y2051000D03*
Y2169000D03*
X1165000Y1001000D03*
Y1119000D03*
Y1401000D03*
Y1519000D03*
Y1701000D03*
Y1819000D03*
Y1951000D03*
Y2069000D03*
X1375000Y951000D03*
Y1069000D03*
Y1301000D03*
Y1419000D03*
Y1901000D03*
Y2019000D03*
Y2151000D03*
Y2269000D03*
X1565000Y951000D03*
Y1069000D03*
Y1401000D03*
Y1519000D03*
Y1651000D03*
Y1769000D03*
Y2101000D03*
Y2219000D03*
X1775000Y951000D03*
Y1069000D03*
Y1201000D03*
Y1318999D03*
Y1551000D03*
Y1669000D03*
Y1901000D03*
Y2019000D03*
Y2166000D03*
Y2284000D03*
X1965000Y1051000D03*
Y1169000D03*
Y1301000D03*
Y1419000D03*
Y1551000D03*
Y1669000D03*
G54D16*
X148740Y84055D03*
Y110038D03*
Y135630D03*
Y160826D03*
Y186810D03*
Y212007D03*
Y237991D03*
Y263188D03*
Y289172D03*
Y314370D03*
Y339960D03*
Y365945D03*
Y484055D03*
Y510038D03*
Y535630D03*
Y560826D03*
Y586810D03*
Y612007D03*
Y637991D03*
Y663188D03*
Y689172D03*
Y714370D03*
Y739960D03*
Y765945D03*
X391260Y84055D03*
Y110038D03*
Y135630D03*
Y160826D03*
Y186810D03*
Y212007D03*
Y237991D03*
Y263188D03*
Y289172D03*
Y314370D03*
Y339960D03*
Y365945D03*
Y484055D03*
Y510038D03*
Y535630D03*
Y560826D03*
Y586810D03*
Y612007D03*
Y637991D03*
Y663188D03*
Y689172D03*
Y714370D03*
Y739960D03*
Y765945D03*
X548740Y484055D03*
Y510038D03*
Y535630D03*
Y560826D03*
Y586810D03*
Y612007D03*
Y637991D03*
Y663188D03*
Y689172D03*
Y714370D03*
Y739960D03*
Y765945D03*
X791260Y484055D03*
Y510038D03*
Y535630D03*
Y560826D03*
Y586810D03*
Y612007D03*
Y637991D03*
Y663188D03*
Y689172D03*
Y714370D03*
Y739960D03*
Y765945D03*
X948740Y484055D03*
Y510038D03*
Y535630D03*
Y560826D03*
Y586810D03*
Y612007D03*
Y637991D03*
Y663188D03*
Y689172D03*
Y714370D03*
Y739960D03*
Y765945D03*
X1191260Y484055D03*
Y510038D03*
Y535630D03*
Y560826D03*
Y586810D03*
Y612007D03*
Y637991D03*
Y663188D03*
Y689172D03*
Y714370D03*
Y739960D03*
Y765945D03*
X1348740Y484055D03*
Y510038D03*
Y535630D03*
Y560826D03*
Y586810D03*
Y612007D03*
Y637991D03*
Y663188D03*
Y689172D03*
Y714370D03*
Y739960D03*
Y765945D03*
X1591260Y484055D03*
Y510038D03*
Y535630D03*
Y560826D03*
Y586810D03*
Y612007D03*
Y637991D03*
Y663188D03*
Y689172D03*
Y714370D03*
Y739960D03*
Y765945D03*
X1748740Y484055D03*
Y510038D03*
Y535630D03*
Y560826D03*
Y586810D03*
Y612007D03*
Y637991D03*
Y663188D03*
Y689172D03*
Y714370D03*
Y739960D03*
Y765945D03*
X1991260Y484055D03*
Y510038D03*
Y535630D03*
Y560826D03*
Y586810D03*
Y612007D03*
Y637991D03*
Y663188D03*
Y689172D03*
Y714370D03*
Y739960D03*
Y765945D03*
G54D17*
X2333500Y1125000D03*
X2486500D03*
G54D18*
X2426600Y1423070D03*
X2452200D03*
X2477800D03*
X2503400D03*
G54D19*
X2465000Y1365000D03*
G54D20*
X2743465Y1379408D03*
Y1405000D03*
Y1430590D03*
X2826535Y1379408D03*
Y1405000D03*
Y1430590D03*
G54D21*
X2785000Y1405000D03*
G54D22*
X45000Y45000D03*
X50000Y440000D03*
X75000Y45000D03*
X80000Y440000D03*
X135000Y45000D03*
X140000Y440000D03*
X164999Y45000D03*
X170000Y440000D03*
X455000Y485000D03*
X485000D03*
X535000Y440000D03*
X565000D03*
X835000Y405000D03*
X865000D03*
Y440000D03*
X895000Y405000D03*
Y440000D03*
X935000D03*
X965000D03*
X1255000D03*
X1285000D03*
X1335000D03*
X1365000D03*
X1660000D03*
X1690000D03*
X1735000D03*
X1765000D03*
X1805000Y60000D03*
X1835000D03*
X2335000Y1300000D03*
Y1405000D03*
X2365000Y1300000D03*
Y1405000D03*
X2430000Y1480000D03*
X2460000D03*
X2805000Y1095000D03*
X2820000Y380000D03*
X2835000Y1095000D03*
X2850000Y380000D03*
X2880000Y1440000D03*
X2910000D03*
G54D23*
X2195750Y514750D03*
Y546250D03*
Y577750D03*
Y609250D03*
Y640750D03*
Y672250D03*
Y703750D03*
Y735250D03*
X2534250Y514750D03*
Y546250D03*
Y577750D03*
Y609250D03*
Y640750D03*
Y672250D03*
Y703750D03*
Y735250D03*
G54D24*
X2254750Y455750D03*
Y794250D03*
X2286250Y455750D03*
Y794250D03*
X2317750Y455750D03*
Y794250D03*
X2349250Y455750D03*
Y794250D03*
X2380750Y455750D03*
Y794250D03*
X2412250Y455750D03*
Y794250D03*
X2443750Y455750D03*
Y794250D03*
X2475250Y455750D03*
Y794250D03*
G54D25*
X2660000Y646500D03*
Y713500D03*
G54D26*
X2825000Y553000D03*
Y927000D03*
G54D27*
X51698Y340300D03*
X52092Y288907D03*
X517480Y63928D03*
Y119076D03*
Y154653D03*
Y242763D03*
G54D28*
X2605500Y1066000D03*
Y1184000D03*
X2664500Y1066000D03*
Y1184000D03*
G54D29*
X1360000Y1647000D03*
Y1683000D03*
G54D30*
X1646410Y90471D03*
Y110156D03*
Y129842D03*
Y149527D03*
X1723590Y90471D03*
Y110156D03*
Y129842D03*
Y149527D03*
G54D31*
X1330000Y120000D03*
G54D32*
X1570000D03*
G54D33*
X2745000Y1953780D03*
Y2032520D03*
Y2111260D03*
Y2190000D03*
G54D34*
X2877320Y1867160D03*
Y2276620D03*
G54D35*
X2117500Y1045000D03*
Y1150000D03*
Y1830000D03*
Y1935000D03*
X2192500Y1045000D03*
Y1150000D03*
Y1830000D03*
Y1935000D03*
G54D36*
X1937000Y2180000D03*
X2263000D03*
G54D37*
X2220000Y135000D03*
X2320000D03*
X2420000D03*
G54D38*
X2520000D03*
G54D70*
X2426600Y1306930D03*
X2452200D03*
X2477800D03*
X2503400D03*
G54D71*
X2629999Y1314999D03*
Y1425000D03*
G54D72*
X1806500Y120000D03*
X1873500D03*
X2751500Y1314999D03*
X2818500D03*
G54D73*
X1685000Y120000D03*
M02*
