; Version : LOCAL
; Job     : C:\Work_Temp_Folder\Sensics_IR_LED\PCB_EVB\PCB\IR_EVB.pcb
; User    : JP_TECH_THINK:Roman Pesikov
; Date    : Fri Feb 27 19:14:09 2015
; Format  : 2.4 / Absolute / Inch / Trailing
; Contents: Thru / Drill / Plated
M48
INCH,LZ
FMAT,2
ICI,OFF
T04C0.0080
T03C0.0190
T01C0.0400
T02C0.0470
%
M72
G90
G93X0Y0
T04
X018594Y000809
X01617Y000837
X003396Y000847
X003069Y000812
X001041Y000451
X000971Y000847
X00045Y000777
X001958Y001618
X002415Y001399
X003087Y001608
X003365Y001365
X012757Y0012
X016125Y001385
X019102Y0012
X026637Y002822
X02564Y002985
X025365Y002987
X025363Y002719
X025108Y002992
X024673Y002515
X018598Y002642
X016974Y002982
X015037Y002262
X014539Y002305
X012969Y00297
X005169Y002882
X002648Y002082
X0005Y0025
X000738Y003977
X002703Y003477
X005955Y003358
X007061Y00387
X007316Y003633
X00902Y003358
X011173Y003868
X011259Y003404
X01138Y00368
X015077Y003885
X015377Y003682
X019154Y003842
X019384Y003633
X0229Y00397
X023195Y003683
X027273Y0039
X027958Y003801
X026637Y004602
X025333Y004802
X024444Y004043
X024129
X023814
X023499
X023184
X022554
X022216Y004778
X02187Y004562
X0213Y004574
X019447Y004843
X01869Y004837
X01802Y004072
X017349Y004091
X016971Y004847
X016285Y0044
X015734Y00453
X015439Y004843
X01402Y004072
X013349Y004113
X012971Y004847
X012254Y004359
X011876Y004456
X011445Y004836
X010714Y004846
X01002Y004072
X009358Y00415
X00902Y004833
X00865Y004712
X007436Y004838
X006708Y004818
X005955Y004848
X005174Y004066
X004946Y004577
X003444Y004849
X003365Y004303
X003087Y004298
X00202Y004281
X001153Y004408
X000971Y004847
X000636Y005005
X00202Y005608
X002293Y005356
X002678Y005701
X003384Y005356
X003385Y005638
X004668Y005155
X005017Y005605
X006559Y005906
X007061Y005609
X007384Y005356
X01002Y005608
X010603Y005841
X011068Y005611
X011384Y005356
X012731Y005664
X01402Y005608
X015077Y005609
X015384Y005356
X01671Y005748
X01802Y005608
X018671Y005999
X019024Y005611
X019384Y005356
X022871Y005505
X02605Y006507
X024792Y006093
X022837Y00672
X02153Y006406
Y006087
X020659Y006442
X019393Y006133
Y006623
X018978Y006984
X018012Y006632
X018006Y00612
X016738Y006984
X015393Y006133
Y006623
X01512Y006882
X014012Y006632
X014006Y00612
X011393Y006133
Y006623
X010012Y006632
X010006Y00612
X008688Y006157
X007393Y006133
Y006623
X006012Y006632
X006006Y00612
X003393Y006133
Y006623
X002012Y006632
X002006Y00612
X002015Y007633
X002019Y007148
X002846Y007437
X003391Y007145
X003395Y007668
X004767Y00743
X006005Y007633
X006019Y007148
X006903Y007384
X007391Y007145
X007395Y007668
X00879Y007468
X010015Y007633
X010019Y007148
X010891Y007375
X011391Y007145
X011395Y007668
X012713Y007505
X014015Y007548
X014019Y007148
X01513Y007997
X015391Y007145
X015395Y007668
X018015Y007633
X018019Y007148
X019391Y007145
X019395Y007668
X0207Y007459
X021443Y007031
Y007346
X024723Y007093
X025771Y007078
X025847Y007353
X024771Y008404
X024432Y008789
X024123Y008379
X023804Y008778
X023459Y008381
X023157Y008786
X022871Y008374
X022226Y00803
X019036Y008023
X016756Y008035
X0003Y008375
X005754Y00901
X020679Y01045
X017751Y010005
X015653Y010192
X013733Y010091
X009754Y01049
X003668Y010031
X001749Y010389
X007663Y011189
X011645Y011687
X019661Y011183
X020656Y0115
X02775Y011
X028185Y012699
X027515
X0263Y012606
X025137Y012677
X024407Y012692
X017731Y012516
X013752Y012515
X005756Y012404
X001751Y013919
X003655Y013596
X009753Y013012
X023975Y013898
X025434Y013124
X028791Y014707
X028265Y014572
X027845Y01457
X023336Y014316
X019642Y014696
X015649Y014655
X011641Y015695
X013714Y015965
X017757Y015005
X0243Y01513
X0246Y015136
X005751Y016009
X001747Y016413
X003655Y017089
X007652Y01769
X009742Y017012
X011602Y017593
X015642Y017193
X019646Y017198
X021175Y017723
X017753Y018508
X013759
X00575Y018896
X001742Y01935
X007658Y019193
X021175Y019958
X009756Y020008
X00365Y021537
X011643Y021186
X013751Y021012
X01775Y021146
X0261Y021113
Y0219
X015681Y02277
X007644Y02269
T03
X016846Y001192
T01
X0282Y00075
X0068Y0013
X0078
X0088
X0101
X0111
X0121
X0282Y00175
Y00275
T02
X0222Y00135
X0232
X0242
X0252
T00
M30
